<svg width="512" height="512" viewBox="0 0 512 512" fill="none" xmlns="http://www.w3.org/2000/svg">
  <!-- Background -->
  <rect width="512" height="512" rx="120" fill="#FFFFFF"/>
  
  <!-- Soft drop shadow for L -->
  <filter id="shadow" x="120" y="100" width="280" height="320" filterUnits="userSpaceOnUse" color-interpolation-filters="sRGB">
    <feDropShadow dx="0" dy="10" stdDeviation="15" flood-color="#4F46E5" flood-opacity="0.2"/>
  </filter>
  
  <!-- The L Shape -->
  <path d="M160 160C160 148.954 168.954 140 180 140H220C231.046 140 240 148.954 240 160V292H332C343.046 292 352 300.954 352 312V352C352 363.046 343.046 372 332 372H180C168.954 372 160 363.046 160 352V160Z" fill="url(#paint1_linear)" filter="url(#shadow)"/>
  
  <!-- AI Sparkle/Dot -->
  <path d="M300 220C300 220 310 160 380 160C310 160 300 100 300 100C300 100 290 160 220 160C290 160 300 220 300 220Z" fill="#3B82F6"/>
  
  <!-- Definitions -->
  <defs>
    <linearGradient id="paint1_linear" x1="160" y1="140" x2="352" y2="372" gradientUnits="userSpaceOnUse">
      <stop stop-color="#6366F1"/>
      <stop offset="1" stop-color="#06B6D4"/>
    </linearGradient>
  </defs>
</svg>
