<svg width="512" height="512" viewBox="0 0 512 512" fill="none" xmlns="http://www.w3.org/2000/svg">
  <!-- Background -->
  <rect width="512" height="512" rx="120" fill="#0C0E14"/>
  
  <!-- Glow effect under the L -->
  <circle cx="256" cy="256" r="150" fill="url(#paint0_radial)" opacity="0.3"/>
  
  <!-- The L Shape -->
  <path d="M160 160C160 148.954 168.954 140 180 140H220C231.046 140 240 148.954 240 160V292H332C343.046 292 352 300.954 352 312V352C352 363.046 343.046 372 332 372H180C168.954 372 160 363.046 160 352V160Z" fill="url(#paint1_linear)"/>
  
  <!-- AI Sparkle/Dot -->
  <path d="M300 220C300 220 310 160 380 160C310 160 300 100 300 100C300 100 290 160 220 160C290 160 300 220 300 220Z" fill="#00D4FF"/>
  
  <!-- Definitions -->
  <defs>
    <radialGradient id="paint0_radial" cx="0" cy="0" r="1" gradientUnits="userSpaceOnUse" gradientTransform="translate(256 256) scale(150)">
      <stop stop-color="#8A2BE2"/>
      <stop offset="1" stop-color="#000000" stop-opacity="0"/>
    </radialGradient>
    <linearGradient id="paint1_linear" x1="160" y1="140" x2="352" y2="372" gradientUnits="userSpaceOnUse">
      <stop stop-color="#4F46E5"/>
      <stop offset="1" stop-color="#06B6D4"/>
    </linearGradient>
  </defs>
</svg>
